<?xml version="1.0" standalone="no"?>
<!DOCTYPE svg PUBLIC "-//W3C//DTD SVG 20010904//EN"
 "http://www.w3.org/TR/2001/REC-SVG-20010904/DTD/svg10.dtd">
<svg version="1.0" xmlns="http://www.w3.org/2000/svg"
 width="590.000000pt" height="590.000000pt" viewBox="0 0 590.000000 590.000000"
 preserveAspectRatio="xMidYMid meet">
<metadata>
Created by potrace 1.14, written by Peter Selinger 2001-2017
</metadata>
<g transform="translate(0.000000,590.000000) scale(0.100000,-0.100000)"
fill="#000000" stroke="none">
<path d="M2475 5523 c-155 -20 -417 -115 -643 -233 -308 -162 -596 -395 -720
-585 -31 -48 -73 -135 -108 -224 -70 -181 -131 -303 -196 -398 -61 -88 -71
-139 -38 -191 11 -18 34 -41 50 -50 34 -19 35 -26 15 -62 -31 -54 -8 -138 48
-175 14 -8 44 -19 67 -23 l43 -7 48 -215 c27 -118 57 -271 67 -340 l18 -125
-43 -53 c-186 -228 -173 -532 32 -737 104 -104 246 -164 387 -165 l47 0 45
-93 c139 -283 382 -534 648 -668 32 -16 58 -31 58 -33 0 -2 -27 -14 -60 -26
-131 -49 -233 -205 -373 -570 -49 -129 -177 -519 -177 -541 0 -15 110 -11 114
4 37 125 159 482 196 576 67 164 146 314 195 368 30 33 57 50 108 68 l67 25 0
-103 c0 -137 -17 -274 -38 -317 -10 -19 -40 -73 -67 -119 -48 -82 -49 -84 -56
-195 -5 -80 -16 -138 -38 -210 -17 -54 -31 -100 -31 -102 0 -2 42 -4 94 -4
l94 0 4 193 4 193 57 96 c32 52 65 120 73 149 16 60 34 246 34 357 0 39 4 72
9 72 22 0 41 -13 41 -29 0 -50 34 -126 77 -172 85 -91 189 -134 323 -133 184
2 334 101 380 252 20 66 43 94 61 75 4 -4 9 -91 12 -193 6 -222 15 -260 98
-385 l59 -91 0 -192 0 -192 68 0 68 0 -3 163 c-5 231 -9 256 -49 321 -19 31
-49 81 -68 111 -38 62 -42 88 -52 294 l-7 144 26 -6 c52 -14 113 -46 155 -82
56 -49 152 -241 215 -431 44 -134 118 -399 132 -476 l7 -38 60 0 c52 0 59 2
54 18 -2 9 -26 98 -51 197 -96 370 -209 656 -309 777 -38 47 -63 66 -130 98
-45 22 -89 40 -97 40 -8 0 27 22 78 49 147 78 240 147 364 271 126 126 201
230 280 390 l50 100 47 0 c205 1 404 127 492 312 94 196 71 400 -63 577 -23
31 -40 61 -38 66 1 6 14 104 27 219 27 234 38 269 107 343 79 85 82 96 79 278
-6 353 -64 621 -187 870 -73 148 -143 242 -248 333 -221 192 -320 247 -500
278 -89 15 -92 17 -153 72 -114 105 -308 199 -468 227 -72 12 -170 15 -515 14
-234 -1 -439 -4 -456 -6z m1290 -1359 c69 -33 144 -104 173 -166 12 -24 32
-109 46 -190 28 -163 58 -253 110 -331 57 -85 148 -170 225 -211 39 -20 74
-42 78 -49 4 -7 10 -89 13 -183 5 -166 6 -172 31 -205 23 -30 26 -42 22 -81
-4 -36 -9 -45 -22 -41 -10 2 -30 -12 -53 -40 -49 -59 -74 -66 -82 -22 -8 41
-62 90 -113 104 -131 35 -594 48 -778 23 -169 -24 -253 -63 -269 -128 -6 -23
-11 -26 -38 -20 -17 3 -83 6 -148 6 -116 0 -117 0 -128 26 -17 36 -58 30 -55
-9 1 -21 -3 -27 -18 -27 -12 0 -19 7 -19 20 0 34 -62 85 -127 103 -140 39
-430 56 -663 38 -267 -21 -332 -43 -366 -121 -10 -22 -23 -40 -30 -40 -7 0
-31 21 -53 47 l-41 46 29 21 c62 44 71 76 71 255 0 89 5 182 11 206 10 40 17
47 87 88 204 118 268 223 362 596 36 145 56 187 117 252 65 69 102 73 242 26
225 -77 409 -101 640 -86 80 5 184 16 231 24 83 14 298 72 350 94 37 16 98 7
165 -25z m975 -1401 c143 -173 125 -429 -40 -587 -33 -31 -83 -68 -112 -81
-52 -23 -174 -52 -183 -43 -3 2 9 45 25 94 48 141 108 368 131 499 11 66 22
121 22 121 4 4 103 32 114 33 6 1 26 -16 43 -36z m-3484 -23 l72 -35 17 -95
c20 -109 81 -334 125 -464 16 -49 28 -92 25 -94 -9 -9 -131 20 -183 43 -65 30
-160 119 -195 183 -59 108 -69 239 -28 356 19 56 78 149 89 144 4 -2 39 -19
78 -38z m1129 -10 c151 -14 250 -36 283 -65 25 -21 27 -30 27 -92 -1 -53 -7
-81 -28 -128 -36 -77 -58 -100 -131 -137 -82 -41 -257 -56 -493 -39 -281 18
-350 43 -400 141 -19 36 -23 61 -23 136 0 150 9 155 340 187 80 8 323 6 425
-3z m1675 -9 c36 -5 -42 -9 -227 -10 -274 -1 -284 -2 -304 -22 -45 -45 -1
-157 84 -213 102 -65 236 -34 302 70 l28 43 131 3 131 3 13 27 c10 22 10 33 1
50 l-12 23 26 -24 c49 -45 46 -216 -6 -292 -48 -72 -169 -102 -447 -114 -408
-17 -541 42 -589 264 -17 82 -2 127 53 152 100 44 259 59 546 53 118 -3 240
-9 270 -13z m365 -176 c-59 -259 -162 -552 -254 -717 -103 -186 -244 -344
-406 -454 -80 -54 -165 -104 -179 -104 -3 0 -6 19 -8 42 -2 31 -8 44 -20 46
-16 3 -18 -5 -18 -56 0 -43 -4 -61 -14 -65 -11 -4 -16 3 -18 26 -2 21 -9 33
-20 35 -15 3 -18 -4 -18 -42 0 -25 -2 -46 -4 -46 -2 0 -11 -3 -20 -6 -12 -4
-16 0 -16 16 0 31 -34 22 -39 -10 -5 -37 -25 -45 -31 -12 -3 15 -13 28 -23 30
-13 3 -17 -4 -17 -32 0 -25 -6 -38 -19 -46 -32 -16 -41 -12 -41 21 0 24 -4 30
-17 27 -12 -2 -20 -16 -23 -42 -7 -58 -30 -59 -30 -1 0 39 -3 46 -17 43 -14
-2 -19 -15 -21 -51 -4 -65 -22 -59 -22 7 0 64 -7 86 -26 86 -11 0 -14 -18 -14
-80 0 -64 -3 -80 -15 -80 -12 0 -15 16 -15 84 0 58 -4 87 -13 95 -23 18 -27 2
-27 -96 0 -75 -3 -93 -15 -93 -11 0 -15 21 -17 108 -2 87 -6 107 -18 107 -12
0 -16 -21 -18 -113 -2 -101 -5 -113 -20 -110 -15 3 -17 18 -20 108 -3 104 -13
140 -32 110 -5 -8 -10 -59 -10 -112 0 -59 -4 -98 -10 -98 -6 0 -10 36 -10 89
0 62 -4 92 -13 100 -22 18 -27 2 -27 -86 0 -66 -3 -83 -15 -83 -11 0 -15 17
-17 72 -2 60 -6 73 -20 76 -16 3 -18 -5 -18 -68 0 -53 -3 -71 -12 -68 -7 3
-15 24 -18 49 -4 31 -10 45 -22 47 -15 3 -18 -4 -18 -32 0 -25 -4 -36 -15 -36
-10 0 -15 11 -15 35 0 28 -4 35 -20 35 -15 0 -20 -7 -20 -26 0 -20 -4 -25 -16
-20 -9 3 -19 6 -24 6 -5 0 -10 15 -12 32 -4 38 -38 55 -38 19 0 -30 -38 -28
-42 1 -3 26 -38 38 -38 14 0 -10 -6 -13 -15 -10 -8 4 -15 17 -15 29 0 34 -10
55 -26 55 -8 0 -14 -10 -14 -26 0 -46 -25 -20 -30 32 -4 36 -10 50 -23 52 -14
3 -17 -4 -17 -38 0 -35 -2 -40 -16 -32 -13 7 -17 26 -18 78 -1 57 -4 69 -18
72 -16 3 -18 -5 -18 -58 l0 -61 -42 25 c-138 82 -290 234 -395 394 -108 164
-222 454 -293 743 -38 155 -38 157 2 124 18 -15 42 -31 54 -35 18 -7 22 -18
26 -77 8 -108 52 -174 149 -223 76 -39 408 -66 623 -51 120 9 147 14 200 39
34 16 76 42 95 57 39 34 86 126 101 201 8 39 17 55 31 59 11 4 24 4 27 0 7 -6
6 -275 0 -340 -3 -26 0 -30 22 -30 34 0 43 46 44 228 l1 147 35 1 c68 2 185
-2 213 -7 20 -4 27 -12 27 -28 0 -42 31 -131 62 -177 35 -51 104 -103 168
-125 109 -38 508 -37 708 1 147 28 221 107 237 252 7 60 8 63 51 88 24 14 51
37 60 51 9 13 18 23 20 21 2 -2 -8 -52 -21 -112z m-1687 -1595 c3 -30 2 -32
-12 -21 -19 16 -22 65 -3 59 6 -3 13 -20 15 -38z m412 16 c0 -8 3 -21 6 -29 4
-11 -14 -24 -63 -49 -60 -29 -77 -33 -148 -33 -62 0 -92 6 -133 24 -37 17 -50
27 -43 34 6 6 11 21 11 34 0 14 6 23 15 23 10 0 15 -10 15 -33 0 -19 3 -37 7
-40 11 -12 33 14 33 39 0 13 5 24 10 24 6 0 10 -13 10 -29 0 -29 21 -57 33
-44 4 3 7 19 7 35 0 21 5 28 19 28 15 0 21 -8 23 -32 2 -21 8 -33 18 -33 10 0
16 12 18 33 4 37 32 46 32 9 0 -13 3 -27 7 -30 11 -12 33 14 33 39 0 15 6 24
15 24 9 0 15 -9 15 -25 0 -15 6 -25 14 -25 15 0 26 21 26 51 0 10 5 19 10 19
6 0 10 -6 10 -14z"/>
<path d="M1933 3146 c-111 -27 -234 -140 -259 -239 l-7 -29 54 31 c70 39 158
53 256 41 95 -12 178 -37 356 -107 159 -61 225 -70 288 -37 l34 18 -38 8 c-51
11 -58 14 -242 138 -177 119 -246 156 -320 176 -58 16 -55 16 -122 0z"/>
<path d="M3830 3153 c-63 -12 -140 -54 -323 -175 -128 -85 -215 -136 -245
-143 l-47 -12 34 -18 c62 -32 130 -23 286 38 184 72 258 94 354 106 100 13
177 1 255 -39 l58 -30 -7 28 c-19 78 -132 194 -221 225 -49 18 -111 26 -144
20z"/>
<path d="M1759 2689 c-45 -45 -1 -157 84 -213 102 -66 236 -34 302 71 l28 43
127 0 c133 0 141 2 154 47 5 17 1 29 -18 48 l-25 25 -316 0 c-307 0 -316 -1
-336 -21z"/>
<path d="M2712 2153 c-32 -62 -19 -123 30 -149 51 -26 68 10 21 44 -26 19 -26
21 -14 61 6 23 9 46 6 51 -10 16 -33 12 -43 -7z"/>
<path d="M3166 2109 c6 -46 5 -53 -16 -69 -15 -11 -21 -23 -17 -34 9 -23 31
-20 61 10 42 43 32 144 -15 144 -18 0 -19 -4 -13 -51z"/>
<path d="M2793 2064 c-9 -23 49 -70 107 -87 l45 -14 5 -77 c3 -42 8 -76 13
-76 4 0 12 0 17 0 13 0 13 133 -1 147 -7 7 0 12 25 16 38 6 112 52 121 75 3 8
3 18 -1 23 -12 20 -45 7 -87 -36 -37 -37 -51 -45 -81 -45 -37 0 -53 11 -98 68
-21 26 -56 29 -65 6z"/>
<path d="M2876 1944 c-11 -30 -6 -121 7 -133 22 -17 27 -3 27 76 0 56 -3 73
-14 73 -8 0 -17 -7 -20 -16z"/>
<path d="M2794 1926 c-3 -7 -4 -35 -2 -62 2 -37 7 -50 21 -52 15 -3 17 5 17
62 0 53 -3 66 -15 66 -9 0 -18 -6 -21 -14z"/>
<path d="M3030 1875 c0 -58 2 -66 18 -63 14 3 17 14 17 63 0 49 -3 60 -17 63
-16 3 -18 -5 -18 -63z"/>
<path d="M2714 1897 c-11 -30 0 -82 19 -85 16 -3 18 3 15 44 -3 47 -22 70 -34
41z"/>
<path d="M3117 1904 c-4 -4 -7 -27 -7 -51 0 -37 3 -43 21 -43 18 0 20 5 17 47
-3 44 -15 62 -31 47z"/>
<path d="M2634 1876 c-10 -27 1 -71 19 -74 14 -3 17 4 17 42 0 35 -4 46 -15
46 -9 0 -18 -6 -21 -14z"/>
<path d="M3190 1846 c0 -40 3 -46 21 -46 18 0 20 5 17 42 -2 31 -8 44 -20 46
-15 3 -18 -4 -18 -42z"/>
<path d="M2554 1856 c-10 -25 0 -61 19 -64 14 -3 17 4 17 37 0 30 -4 41 -15
41 -9 0 -18 -6 -21 -14z"/>
<path d="M3270 1830 c0 -33 3 -40 20 -40 17 0 20 7 20 40 0 33 -3 40 -20 40
-17 0 -20 -7 -20 -40z"/>
<path d="M2463 1824 c-7 -18 8 -49 23 -49 5 0 10 15 12 33 2 24 -1 32 -13 32
-8 0 -18 -7 -22 -16z"/>
<path d="M3360 1810 c0 -23 4 -30 20 -30 16 0 20 7 20 30 0 23 -4 30 -20 30
-16 0 -20 -7 -20 -30z"/>
<path d="M2384 1805 c-9 -21 3 -45 21 -45 10 0 15 10 15 30 0 32 -26 43 -36
15z"/>
<path d="M3447 1814 c-4 -4 -7 -18 -7 -31 0 -17 6 -23 21 -23 16 0 20 5 17 27
-3 26 -18 39 -31 27z"/>
<path d="M2310 1769 c-20 -36 -8 -62 44 -94 49 -30 50 -30 260 -39 233 -10
375 -11 666 -3 206 5 249 13 297 59 l23 21 0 -22 c0 -30 34 -24 38 6 3 18 -5
26 -37 40 -22 9 -42 26 -45 36 -6 24 -30 17 -34 -10 -5 -34 -48 -43 -247 -49
-288 -10 -390 -9 -626 2 -180 10 -223 15 -262 32 -26 12 -47 26 -47 31 0 18
-19 12 -30 -10z"/>
<path d="M2230 1700 c0 -25 4 -31 18 -28 11 2 17 12 17 28 0 16 -6 26 -17 28
-14 3 -18 -3 -18 -28z"/>
<path d="M2174 1667 c-10 -27 0 -72 16 -72 11 0 15 11 15 39 0 40 -20 61 -31
33z"/>
<path d="M3657 1673 c-10 -9 -8 -55 2 -72 15 -23 31 -2 31 40 0 37 -15 51 -33
32z"/>
<path d="M2130 1520 c0 -72 2 -81 18 -78 14 3 17 15 17 78 0 63 -3 75 -17 78
-16 3 -18 -6 -18 -78z"/>
<path d="M3700 1519 c0 -71 2 -80 18 -77 13 2 18 15 20 58 4 67 -4 100 -23
100 -12 0 -15 -16 -15 -81z"/>
<path d="M2185 1508 c-9 -24 -1 -143 10 -143 13 0 19 135 6 148 -7 7 -12 5
-16 -5z"/>
<path d="M3657 1514 c-10 -10 -9 -142 1 -148 22 -14 33 14 30 79 -3 63 -13 86
-31 69z"/>
<path d="M3607 1433 c-9 -8 -9 -96 -1 -117 3 -9 12 -16 20 -16 11 0 14 17 14
70 0 52 -3 70 -13 70 -8 0 -17 -3 -20 -7z"/>
</g>
</svg>
